<?xml version="1.0" encoding="utf-8"?>
<!-- Generator: Adobe Illustrator 21.1.0, SVG Export Plug-In . SVG Version: 6.00 Build 0)  -->
<svg version="1.1" id="Layer_1" xmlns="http://www.w3.org/2000/svg" xmlns:xlink="http://www.w3.org/1999/xlink" x="0px" y="0px"
	 viewBox="0 0 20 60" style="enable-background:new 0 0 20 60;" xml:space="preserve">
<style type="text/css">
	.st0{fill:#A2A2A2;}
</style>
<title>arrows</title>
<path class="st0" d="M3.4,26.9h13.3c0.3,0,0.5-0.1,0.7-0.3c0.2-0.2,0.3-0.4,0.3-0.6c0-0.3-0.1-0.5-0.3-0.7l-6.6-6.6
	c-0.2-0.2-0.4-0.3-0.7-0.4c-0.3,0-0.5,0.2-0.7,0.4l-6.6,6.7c-0.2,0.2-0.3,0.4-0.3,0.7c0,0.3,0.1,0.5,0.3,0.7
	C2.9,26.9,3.1,26.9,3.4,26.9z"/>
<path class="st0" d="M16.6,33H3.4c-0.3,0-0.5,0.1-0.7,0.3c-0.2,0.2-0.3,0.4-0.3,0.7c0,0.3,0.1,0.5,0.3,0.7l6.6,6.6
	c0.2,0.2,0.4,0.3,0.7,0.3c0.3,0,0.5-0.1,0.7-0.3l6.6-6.6c0.2-0.2,0.3-0.5,0.3-0.7C17.6,33.5,17.2,33,16.6,33z"/>
</svg>
