<?xml version="1.0" encoding="utf-8"?>
<!-- Generator: Adobe Illustrator 21.1.0, SVG Export Plug-In . SVG Version: 6.00 Build 0)  -->
<svg version="1.1" id="Layer_1" xmlns="http://www.w3.org/2000/svg" xmlns:xlink="http://www.w3.org/1999/xlink" x="0px" y="0px"
	 viewBox="0 0 20 60" style="enable-background:new 0 0 20 60;" xml:space="preserve">
<style type="text/css">
	.st0{fill:#A2A2A2;}
</style>
<title>arrows</title>
<path class="st0" d="M1.5,39.2h16.9V26.9H1.5V39.2z M6.2,24.6v-3.5c0-0.2-0.2-0.4-0.4-0.4H5c-0.2,0-0.4,0.2-0.4,0.4v3.5
	C4.6,24.8,4.8,25,5,25h0.8C6,25,6.2,24.8,6.2,24.6z M15.4,24.6v-3.5c0-0.2-0.2-0.4-0.4-0.4h-0.8c-0.2,0-0.4,0.2-0.4,0.4v3.5
	c0,0.2,0.2,0.4,0.4,0.4H15C15.2,25,15.4,24.8,15.4,24.6z M20,23.8v15.4c0,0.8-0.7,1.5-1.5,1.5H1.5c-0.8,0-1.5-0.7-1.5-1.5V23.8
	c0-0.8,0.7-1.5,1.5-1.5h1.5v-1.2c0-1.1,0.9-1.9,1.9-1.9h0.8c1.1,0,1.9,0.9,1.9,1.9v1.2h4.6v-1.2c0-1.1,0.9-1.9,1.9-1.9H15
	c1.1,0,1.9,0.9,1.9,1.9v1.2h1.5C19.3,22.3,20,23,20,23.8z"/>
</svg>
