<svg id="Layer_1" data-name="Layer 1" xmlns="http://www.w3.org/2000/svg" viewBox="0 0 20 60"><defs><style>.cls-1{fill:gray;}</style></defs><title>arrows</title><path class="cls-1" d="M3.36,26.94H16.64a0.93,0.93,0,0,0,.69-0.31A1,1,0,0,0,17.64,26a0.83,0.83,0,0,0-.31-0.69l-6.64-6.64A1,1,0,0,0,10,18.31a1.24,1.24,0,0,0-.69.38L2.67,25.34a1,1,0,0,0-.31.69,0.83,0.83,0,0,0,.31.69A1.23,1.23,0,0,0,3.36,26.94Z"/><path class="cls-1" d="M16.64,33.05H3.36a0.93,0.93,0,0,0-.69.31,1,1,0,0,0-.31.69,0.93,0.93,0,0,0,.31.69l6.64,6.64a1,1,0,0,0,.69.31,0.83,0.83,0,0,0,.69-0.31l6.64-6.64A1,1,0,0,0,17.64,34,1,1,0,0,0,16.64,33.05Z"/></svg>